<svg width="26" height="25" fill="none" xmlns="http://www.w3.org/2000/svg"><path d="M17.554 2a4.879 4.879 0 0 0-3.476 1.462l-8.546 8.601c-2.71 2.727-2.71 7.164 0 9.892a6.927 6.927 0 0 0 9.828 0l5.698-5.734-1.282-1.29-5.698 5.734a5.101 5.101 0 0 1-7.264 0 5.18 5.18 0 0 1 0-7.311l8.546-8.602a3.096 3.096 0 0 1 4.416 0 3.144 3.144 0 0 1 0 4.444l-8.546 8.602a1.093 1.093 0 0 1-1.567 0 1.11 1.11 0 0 1 0-1.577l7.834-7.885-1.282-1.29-7.834 7.885a2.964 2.964 0 0 0 0 4.157 2.918 2.918 0 0 0 4.13 0l8.547-8.601a4.998 4.998 0 0 0 0-7.025A4.943 4.943 0 0 0 17.554 2Z" fill="#1D242A"/></svg>