<svg width="30" height="30" fill="none" xmlns="http://www.w3.org/2000/svg"><g clip-path="url(#a)"><path fill-rule="evenodd" clip-rule="evenodd" d="m30 27.604-5.752-5.753a13.462 13.462 0 0 0 2.86-8.297C27.108 6.081 21.028 0 13.554 0 6.081 0 0 6.08 0 13.554c0 7.473 6.08 13.554 13.554 13.554a13.48 13.48 0 0 0 8.297-2.86L27.604 30 30 27.604ZM13.554 23.72c-5.606 0-10.165-4.559-10.165-10.165 0-5.606 4.559-10.165 10.165-10.165 5.606 0 10.165 4.559 10.165 10.165 0 5.606-4.559 10.165-10.165 10.165Zm1.694-16.095H11.86v4.236H7.624v3.388h4.236v4.236h3.388v-4.236h4.236V11.86h-4.236V7.624Z" fill="#fff"/></g><defs><clipPath id="a"><path fill="#fff" d="M0 0h30v30H0z"/></clipPath></defs></svg>