<svg width="26" height="25" viewBox="0 0 26 25" fill="none" xmlns="http://www.w3.org/2000/svg">
<path d="M17.5539 2C16.287 2 15.0398 2.49468 14.0784 3.46221L5.53206 12.0635C2.82255 14.7904 2.82275 19.2271 5.53206 21.9549C8.24157 24.6818 12.65 24.6816 15.3604 21.9549L21.058 16.2207L19.776 14.9305L14.0784 20.6647C12.0648 22.6905 8.82665 22.6903 6.81401 20.6647C4.80117 18.6382 4.80137 15.3792 6.81401 13.3536L15.3604 4.7524C16.5864 3.51854 18.55 3.51854 19.776 4.7524C21.002 5.98626 21.002 7.96252 19.776 9.19638L11.2296 17.7976C10.7904 18.2392 10.101 18.2386 9.6628 17.7976C9.22405 17.3555 9.22465 16.6617 9.6628 16.2207L17.497 8.33625L16.215 7.04606L8.38085 14.9305C7.24556 16.0731 7.24616 17.9445 8.38085 19.0878C9.51614 20.2304 11.3756 20.2298 12.5116 19.0878L21.058 10.4866C22.9807 8.55149 22.9807 5.39728 21.058 3.46221C20.0966 2.49468 18.8209 2 17.5539 2Z" fill="#1D242A"/>
</svg>
